<svg xmlns="http://www.w3.org/2000/svg" viewBox="0 0 447 447" width="447" height="447" role="img" aria-label="Mercado Livre">
<title>Mercado Livre</title>
<path d="M307,113c.71,.24,1.42,.48,2.15,.72c33.67,11.51,65.73,32.59,83.35,64.2c2.69,5.52,4.67,11.23,6.5,17.08c.24,.74,.47,1.48,.71,2.24c6.78,23.85,1.53,52.32-10.13,73.72c-3.66,6.45-7.84,12.32-12.58,18.04c-.72,.87-1.44,1.74-2.18,2.64c-5.37,6.23-11.29,11.39-17.82,16.36c-.27,.2-.27,.2-1.61,1.23c-46.54,35.34-112.1,43.39-168.79,36.13C146.83,339.8,108.52,327.28,79,299c-.89-.82-1.79-1.64-2.71-2.48c-20.79-19.68-29.58-45.21-31.48-73.29c-.06-2.44,.03-4.8,.19-7.23c.04-.62,.04-.62,.24-3.78c2.19-26.85,16.44-49.11,36.48-66.54C141.96,95.31,234.8,88.5,307,113Z" fill="#2D3277"/>
<path d="M393,211c1.17,24.54-7.12,42.61-23,61c-.63,.74-1.27,1.47-1.92,2.23C349.71,293.9,324.14,305.83,299,314c-1.18,.39-2.35,.78-3.56,1.18c-23.14,7.44-46.59,10.37-70.85,10.27c-3.09-.01-6.18,.02-9.27,.05c-13.31,.04-25.8-1.45-38.83-4.05c-3.18-.57-6.36-.89-9.56-1.22c-2.31-.28-4.41-.81-6.61-1.53c-.78-.26-1.56-.51-2.36-.77c-.79-.26-1.58-.53-2.4-.8c-1.68-.56-3.37-1.11-5.05-1.66c-.79-.26-1.58-.52-2.4-.79c-2.37-.76-4.76-1.42-7.17-2.05c-11.78-3.5-23.4-9.4-33.94-15.63c-.44-.25-.44-.25-2.65-1.54C96.55,290.74,89.75,285.09,83,279c-.96-.87-1.93-1.73-2.92-2.62c-15.38-14.58-26-33.97-27.33-55.36c0-3.02,.06-6.01,.25-9.02c24.32,3.62,52.23,9.16,73,23c.15,2.57,.15,2.57-.06,5.69c-.17,7.15,1.35,10.27,6.12,15.62c3.11,1.79,4.93,1.99,8.44,2.38c5.05,.74,5.05,.74,7.04,3.26c.77,1.58,1.52,3.18,2.25,4.79c2.09,3.89,5.17,5.68,9.21,7.26c1.87,.34,3.74,.63,5.63,.88c4.18,.58,5.99,1.23,8.56,4.62c.45,.62,.9,1.24,1.36,1.88c2.56,2.86,5.77,3.2,9.45,3.62c.34,.01,.34,.01,2.04,.05c3.39,.13,5.26,.28,7.77,2.68c1.17,1.44,2.34,2.88,3.49,4.32c3.18,3.64,6.62,4.68,11.31,5.29c6.11,.34,9.82-.51,14.64-4.34c1.75-1,1.75-1,3.71-.75c2.06,.76,4.12,1.53,6.17,2.31c6.69,2.22,12.91,2.68,19.37-.43c2.24-1.24,3.67-2.3,5.5-4.13c2.32-.24,2.32-.24,5.13-.31c5.69-.44,9.62-1.82,13.87-5.69c.83-1.2,1.62-2.43,2.38-3.69c1.49-2.33,2.15-3.17,4.83-3.99c1.72-.26,3.44-.51,5.16-.76c4.66-.99,8.25-3.23,11.63-6.56c1.36-2.55,1.36-2.55,2.5-5.25c1.94-4.5,1.94-4.5,4.59-5.7c1.56-.28,3.13-.52,4.7-.71c4.61-.71,7.54-3.58,10.52-6.96c2.89-4.07,2.8-6.51,2.75-11.5c0-.65,0-.65-.02-3.89c-.02-.99-.03-1.97-.04-2.99c11.86-4.91,23.67-9.43,36-13c1.19-.35,2.38-.69,3.61-1.05c2.3-.66,4.61-1.32,6.92-1.97c2.45-.69,4.9-1.4,7.35-2.12c1.26-.36,2.51-.73,3.81-1.11c1.14-.34,2.27-.67,3.45-1.02C390,211,390,211,393,211Z" fill="#FFD100"/>
<path d="M230.13,144.69c.91,0,1.83,.01,2.77,.01c12.66,.22,23.57,3.09,35.1,8.3c2.49,1.08,4.99,2.14,7.5,3.19c.57,.24,.57,.24,3.47,1.48c9.28,3.39,19.13,3.67,28.91,3.58c.57,0,.57,0,3.46-.02c14.98-.2,30.56-2.13,43.93-9.48c2.33-1.01,3.36-.56,5.73,.25c1.6,1.19,1.6,1.19,3.14,2.7c.57,.56,1.14,1.13,1.73,1.71c.6,.6,1.2,1.21,1.82,1.84c.31,.31,.31,.31,1.88,1.9C379.89,170.84,392,186.43,392,202c-.72,.18-1.44,.35-2.18,.54c-7.51,1.85-14.99,3.83-22.44,5.9c-1.06,.28-2.11,.57-3.2,.87c-6.6,1.83-12.87,4.05-19.18,6.69c-1.77,.66-3.54,1.31-5.31,1.94c-3.07,1.09-6.09,2.22-9.1,3.46c-.57,.23-.57,.23-3.46,1.41c-1.05,.44-2.1,.88-3.18,1.33c-3.3,.96-4.75,1.07-7.95-.14c-2.54-2-2.54-2-5.19-4.56c-3.41-3.24-6.85-6.36-10.56-9.25c-4.29-3.37-8.4-6.91-12.5-10.5c-5.5-4.82-11.12-9.41-16.9-13.87c-3.23-2.51-6.3-5.09-9.29-7.88c-3.88-3.54-8.07-6.47-12.43-9.38c-.33-.22-.33-.22-1.99-1.32c-7.63-5-15.27-5.18-24.14-4.24c-7.94,2.08-14.32,8.2-20.59,13.27c-14.89,12.02-14.89,12.02-23.41,11.98c-.52,0-.52,0-3.12,.02c-2.83-.27-4.48-.82-6.88-2.27c.56-3.97,2.49-5.94,5.19-8.81c2.83-3.05,5.6-6.1,8.25-9.31c.84-.95,1.69-1.9,2.56-2.88c.66,0,1.32,0,2,0c.33-.99,.66-1.98,1-3c12.01-11.83,25.47-17.42,42.13-17.31ZM89,150c3.94,1.31,7.87,2.65,11.79,4.02c48.97,16.96,48.97,16.96,69.34,8.54c2.3-.69,3.59-.21,5.87,.44c-.19,.2-.19,.2-1.15,1.22c-1.72,1.84-3.44,3.69-5.16,5.53c-.6,.63-1.19,1.27-1.81,1.92c-7.73,8.29-7.73,8.29-8.32,12.27c.58,4.02,1.38,5.36,4.44,8.06c7.71,3.7,17.17,4.48,25.44,2.38c6.53-2.63,11.99-7.17,17.56-11.38c2.45-1.81,4.91-3.59,7.38-5.37c.58-.43,1.16-.86,1.76-1.3c6.54-4.73,11.85-6.41,19.86-5.33c13.72,4.24,25.61,17.25,36.24,26.47c2.97,2.58,5.96,5.15,8.95,7.72c.58,.5,1.16,1,1.76,1.51c3.56,3.05,7.16,6.04,10.8,8.99c4.42,3.59,8.67,7.33,12.88,11.16c2.93,2.65,5.9,5.25,8.87,7.84c2.48,2.17,2.48,2.17,2.94,6.06c-.06,3.7-.4,4.2-2.94,7.25c-2.97,2.04-5.79,2.87-9.45,2.59c-3.29-.95-5.23-2.9-7.65-5.26c-3.03-2.94-6.24-5.66-9.46-8.39c-1.16-.99-2.32-1.98-3.48-2.98c-.56-.48-1.13-.96-1.71-1.46c-1.22-1.05-2.43-2.11-3.64-3.18c-.61-.54-1.23-1.08-1.86-1.64c-.55-.49-1.11-.98-1.68-1.49c-2.09-1.58-3.98-2.03-6.57-2.19c1.29,5.18,3.6,8.05,7.45,11.55c1.08,1.04,2.17,2.08,3.26,3.12c1.71,1.61,3.42,3.21,5.15,4.8c1.67,1.55,3.32,3.13,4.96,4.71c.52,.46,1.04,.93,1.57,1.41c2.86,2.77,3.94,4.76,4.01,8.66c-.4,3.75-.4,3.75-1.64,5.59c-5.02,3.37-7.59,4.96-13.76,4.16c-3.04-1.92-5.46-4.48-8-7c-1.76-1.72-3.53-3.44-5.31-5.14c-1.24-1.19-2.46-2.38-3.68-3.59c-4.36-4.19-4.36-4.19-7.94-4.65c-.68,.13-1.36,.25-2.07,.38c.57,3.89,2.35,5.8,5,8.63c.8,.87,1.61,1.74,2.43,2.64c1.71,1.82,3.44,3.63,5.17,5.43c.81,.86,1.62,1.72,2.46,2.61c.76,.78,1.51,1.56,2.29,2.37c1.94,2.73,2.17,4.04,1.65,7.32c-3.03,3.4-6.31,5-10.9,5.35c-4.39-.73-7.1-4.29-10.1-7.35c-1.74-1.66-3.49-3.31-5.25-4.94c-.81-.77-1.62-1.54-2.45-2.34C242,266,242,266,238,266c.31,5.4,3.46,8.05,7.06,11.69C251,283.76,251,283.76,251,286c-6.1,2.66-11.64,2.27-17.78-.05c-.73-.31-1.46-.63-2.22-.95c.03-.93,.07-1.86,.11-2.82c.31-14.5,.31-14.5-5.61-20.87c-2.86-2.25-5.78-3.05-9.25-4.06c-4.92-1.63-4.92-1.63-6.37-4.32c-.5-2.34-.76-4.55-.88-6.93c-.37-2.94-.37-2.94-1-5c-1.62-1.12-1.62-1.12-4-2c-.99-.52-1.98-1.03-3-1.56c-3.37-1.48-6.34-1.62-10-1.75c-5.39-.31-7.74-1.49-11.5-5.26c-3.95-3.77-9.12-3.72-14.27-3.65c-2.23,.22-2.23,.22-5.85,1.47c-3.38,.75-3.38,.75-6.75-1.12c-.29-.2-.29-.2-1.75-1.16c-4.64-2.39-9.9-1.21-14.75-.03c-1.04,.35-2.07,.7-3.13,1.06c-3,1-3,1-5.98-.37c-1.26-.69-2.52-1.38-3.77-2.07C102.09,213.49,78.19,208.07,55,203c2.17-14.73,9.52-26.8,19-38c.44-.56,.88-1.13,1.34-1.71c2.92-3.72,6.3-6.72,9.89-9.77C87,152,87,152,89,150Z" fill="#FFFFFF"/>
<path d="M272,112c.49,.1,.49,.1,2.99,.58c26.37,5.27,53.9,14.11,75.01,31.42c-3.43,2.99-7.16,4.27-11.44,5.56c-.71,.22-1.42,.43-2.16,.66c-16.84,4.94-32.93,5.28-49.9,1.09c-.99-.24-1.98-.48-3-.74c-5.76-1.53-10.78-3.6-16.05-6.36c-17.2-8.46-39.29-10.38-57.73-5.19c-6.21,2.23-11.51,4.88-16.53,9.17c-4.26,3.33-8.3,3.73-13.58,4.31c-3.24,.45-6.27,1.17-9.42,2.06c-17.43,4.92-33.76,1.93-50.94-2.93c-1.07-.3-2.14-.59-3.25-.89c-6.07-1.7-11.47-3.71-17-6.74c18.33-20.77,57.67-29.41,84-33c1.37-.2,2.74-.39,4.11-.59c3.62-.5,7.25-.98,10.89-1.41c.68-.09,1.35-.18,2.05-.27c23.79-2.79,48.54-1.41,71.95,3.27Z" fill="#FFD100"/>
<path d="M89,150c.66,.33,1.32,.66,2,1c-6,6-12,12-18,18c-.66-.33-1.32-.66-2-1c4.48-5.26,9.05-10.13,14.34-14.59C87,152,87,152,89,150Zm60.25,82.56c2.78,2.28,3.51,5.1,4.75,8.44c.66,0,1.32,0,2,0c.64-.8,1.28-1.61,1.94-2.44C160,236,160,236,163,235c5.39-.52,9.64-.57,14,3c2.13,3.19,2.5,5.27,3,9c2.5-.45,3.83-.85,5.75-2.56c3.37-2.15,6.45-2.27,10.25-1.44c3.13,1.45,5.16,3.06,7,6c.96,5.46,.16,10.63-1,16c.56-.16,1.12-.31,1.7-.47c4.86-1.12,10.02-1.86,14.47,.74c5.5,4.67,5.5,4.67,6.14,8.65c.27,4.71-.07,7.41-3.18,11.08c-3.18,3.32-5.29,4.19-9.88,4.38c-3.84-.07-5.23-.37-8.69-2.32c-3.16-3.78-4.38-7.33-5.56-12.06c-2.96,.61-4.38,1.25-7,3c-3.31,.44-5.81,.71-8.75-1.05c-2.19-1.78-3.98-3.41-5.25-5.95c-.04-2.33-.04-4.67,0-7c-1.18,.5-2.35,.99-3.56,1.5c-4,1.47-7.15,2.14-11.44,1.5c-3.44-2.07-5.77-4.66-8-8c-.2-2.48-.2-2.48-.12-5.19c.01-.9,.03-1.8,.05-2.73c.02-.69,.05-1.37,.07-2.08c-.85,.5-1.69,.99-2.56,1.5c-3.94,1.72-6.19,2.11-10.44,1.5c-2.97-1.8-5.42-3.85-7-7c-.37-3.31-.37-3.31,0-7c4.75-5.75,8.84-7.29,16.25-5.44Z" fill="#FFFFFF"/>
</svg>
